<?xml version="1.0" encoding="UTF-8"?>
<svg xmlns="http://www.w3.org/2000/svg" xmlns:xlink="http://www.w3.org/1999/xlink" width="36px" height="36px" viewBox="0 0 36 36" version="1.1">
<g id="surface1">
<path style=" stroke:none;fill-rule:nonzero;fill:rgb(100%,89.803922%,46.666667%);fill-opacity:1;" d="M 34.632812 19.324219 C 34.632812 11.582031 28.355469 5.304688 20.609375 5.304688 C 12.867188 5.304688 6.589844 11.582031 6.589844 19.324219 C 6.589844 27.070312 12.867188 33.347656 20.609375 33.347656 C 28.355469 33.347656 34.632812 27.070312 34.632812 19.324219 Z M 34.632812 19.324219 "/>
<path style=" stroke:none;fill-rule:nonzero;fill:rgb(0%,0%,0%);fill-opacity:1;" d="M 18 33.429688 C 9.492188 33.429688 2.570312 26.507812 2.570312 18 C 2.570312 9.492188 9.492188 2.570312 18 2.570312 C 26.507812 2.570312 33.429688 9.492188 33.429688 18 C 33.429688 26.507812 26.507812 33.429688 18 33.429688 Z M 18 3.855469 C 10.203125 3.855469 3.855469 10.203125 3.855469 18 C 3.855469 25.796875 10.203125 32.144531 18 32.144531 C 25.796875 32.144531 32.144531 25.796875 32.144531 18 C 32.144531 10.203125 25.796875 3.855469 18 3.855469 Z M 11.191406 27.535156 C 11.078125 27.535156 10.96875 27.503906 10.871094 27.449219 L 8.003906 25.789062 C 7.695312 25.613281 7.589844 25.21875 7.765625 24.910156 L 12.882812 16.050781 C 13.0625 15.742188 13.453125 15.640625 13.761719 15.816406 L 18.398438 18.492188 L 20.753906 14.414062 L 18.140625 12.902344 C 17.925781 12.78125 17.800781 12.546875 17.820312 12.300781 C 17.835938 12.058594 17.992188 11.84375 18.21875 11.75 L 26.230469 8.515625 C 26.414062 8.445312 26.621094 8.457031 26.789062 8.554688 C 26.960938 8.65625 27.078125 8.828125 27.105469 9.023438 L 28.308594 17.574219 C 28.34375 17.816406 28.238281 18.058594 28.035156 18.195312 C 27.828125 18.335938 27.566406 18.34375 27.351562 18.222656 L 24.734375 16.710938 L 20.402344 24.210938 C 20.222656 24.519531 19.832031 24.621094 19.523438 24.445312 L 14.890625 21.769531 L 11.746094 27.210938 C 11.660156 27.359375 11.519531 27.46875 11.355469 27.511719 C 11.300781 27.527344 11.246094 27.535156 11.191406 27.535156 Z M 9.203125 25 L 10.957031 26.015625 L 14.097656 20.570312 C 14.277344 20.261719 14.667969 20.15625 14.976562 20.335938 L 19.613281 23.011719 L 23.945312 15.511719 C 24.121094 15.203125 24.515625 15.097656 24.824219 15.277344 L 26.855469 16.449219 L 25.949219 10.015625 L 19.925781 12.449219 L 21.957031 13.621094 C 22.105469 13.707031 22.210938 13.847656 22.253906 14.011719 C 22.300781 14.175781 22.277344 14.355469 22.191406 14.5 L 19.191406 19.691406 C 19.011719 20 18.621094 20.105469 18.3125 19.929688 L 13.675781 17.25 Z M 9.203125 25 "/>
</g>
</svg>
