<svg width="4097" height="948" xmlns="http://www.w3.org/2000/svg" xmlns:xlink="http://www.w3.org/1999/xlink" xml:space="preserve" overflow="hidden"><g transform="translate(-330 -637)"><g><text fill="#FFFFFF" fill-opacity="1" font-family="Eigerdals Heavy,Eigerdals Heavy_MSFontService,sans-serif" font-style="normal" font-variant="normal" font-weight="900" font-stretch="normal" font-size="449" text-anchor="start" direction="ltr" writing-mode="lr-tb" unicode-bidi="normal" text-decoration="none" transform="matrix(1 0 0 1 1287.17 1178)">BrAnd&amp;Byte</text><path d="M626.5 1360C463.005 1360 330 1226.99 330 1063.5 330 900.005 463.005 767 626.5 767 789.995 767 923 900.005 923 1063.5 923 1226.99 789.995 1360 626.5 1360ZM626.5 791.708C476.644 791.708 354.708 913.644 354.708 1063.5 354.708 1213.36 476.644 1335.29 626.5 1335.29 776.356 1335.29 898.292 1213.36 898.292 1063.5 898.292 913.644 776.356 791.708 626.5 791.708ZM495.645 1246.74C493.495 1246.74 491.345 1246.17 489.468 1245.08L434.368 1213.21C428.463 1209.8 426.461 1202.24 429.846 1196.33L528.186 1026.07C531.595 1020.14 539.156 1018.14 545.061 1021.55L634.16 1072.99 679.45 994.589 629.168 965.556C625.067 963.184 622.695 958.712 623.016 953.993 623.337 949.298 626.327 945.172 630.725 943.393L784.633 881.251C788.192 879.868 792.145 880.139 795.431 882.017 798.717 883.92 800.966 887.231 801.485 890.986L824.636 1055.32C825.303 1059.99 823.228 1064.64 819.324 1067.28 815.395 1069.92 810.33 1070.07 806.229 1067.75L755.947 1038.72 672.68 1182.87C669.246 1188.77 661.685 1190.77 655.804 1187.39L566.731 1135.97 506.319 1240.54C504.688 1243.38 501.97 1245.45 498.807 1246.29 497.794 1246.59 496.732 1246.74 495.645 1246.74ZM457.421 1197.99 491.123 1217.51 551.535 1112.92C554.945 1106.99 562.481 1104.96 568.411 1108.4L657.484 1159.81 740.751 1015.66C744.161 1009.73 751.722 1007.71 757.627 1011.14L796.666 1033.68 779.272 910.086 663.489 956.809 702.528 979.368C705.369 980.999 707.445 983.717 708.285 986.879 709.125 990.042 708.705 993.427 707.049 996.244L649.405 1096.04C645.97 1101.95 638.409 1103.95 632.529 1100.56L543.431 1049.12 457.421 1197.99Z" fill="#FFFFFF" fill-rule="evenodd" fill-opacity="1"/></g></g></svg>